<?xml version="1.0" encoding="UTF-8" standalone="no"?>
<svg
viewBox="0 0 22 22"
version="1.1"
id="svg2"
height="22"
width="22"
xmlns="http://www.w3.org/2000/svg"
xmlns:svg="http://www.w3.org/2000/svg"
xmlns:rdf="http://www.w3.org/1999/02/22-rdf-syntax-ns#"
xmlns:cc="http://creativecommons.org/ns#"
xmlns:dc="http://purl.org/dc/elements/1.1/">
<defs
id="defs1" />
<metadata
id="metadata7">
<rdf:RDF>
<cc:Work>
<dc:format>image/svg+xml</dc:format>
<dc:type
rdf:resource="http://purl.org/dc/dcmitype/StillImage" />
<dc:date>2025</dc:date>
<dc:creator>
<cc:Agent>
<dc:title>Thomas Knowles</dc:title>
</cc:Agent>
</dc:creator>
<cc:license
rdf:resource="http://creativecommons.org/licenses/by-sa/4.0/" />
</cc:Work>
<cc:License
rdf:about="http://creativecommons.org/licenses/by-sa/4.0/">
<cc:permits
rdf:resource="http://creativecommons.org/ns#Reproduction" />
<cc:permits
rdf:resource="http://creativecommons.org/ns#Distribution" />
<cc:requires
rdf:resource="http://creativecommons.org/ns#Notice" />
<cc:requires
rdf:resource="http://creativecommons.org/ns#Attribution" />
<cc:permits
rdf:resource="http://creativecommons.org/ns#DerivativeWorks" />
<cc:requires
rdf:resource="http://creativecommons.org/ns#ShareAlike" />
</cc:License>
</rdf:RDF>
</metadata>
<path
style="fill:#373737;fill-rule:evenodd"
d="M 9.25,10.34 C 12.04,12.46 10.94,18 7.45,18 3.95,18 2.82,12.47 5.63,10.34 3.32,8.57 4.37,4 7.45,4 c 3.04,0 4.11,4.6 1.8,6.34 z M 7.46,6.12 c -1.9,0 -1.84,3.49 0,3.49 1.84,0 1.9,-3.49 0,-3.49 z m -0.03,5.27 c -2.1,-0.05 -2.11,4.33 0,4.37 2.11,0.04 2.1,-4.32 0,-4.37 z M 19,10.5 H 16 V 8 l -3.5,3 3.5,3 v -2.5 h 3 z m 0,2.5 v 6 h -6 v -1 h 5 V 13 M 18,9 V 4 H 13 V 3 h 6 V 9 M 3,3 h 9 V 19 H 3 Z" />
</svg>
