<?xml version="1.0" encoding="UTF-8" standalone="no"?>
<svg
viewBox="0 0 22 22"
version="1.1"
id="svg2"
height="22"
width="22"
xmlns="http://www.w3.org/2000/svg"
xmlns:svg="http://www.w3.org/2000/svg"
xmlns:rdf="http://www.w3.org/1999/02/22-rdf-syntax-ns#"
xmlns:cc="http://creativecommons.org/ns#"
xmlns:dc="http://purl.org/dc/elements/1.1/">
<defs
id="defs1" />
<metadata
id="metadata7">
<rdf:RDF>
<cc:Work>
<dc:format>image/svg+xml</dc:format>
<dc:type
rdf:resource="http://purl.org/dc/dcmitype/StillImage" />
<dc:date>2025</dc:date>
<dc:creator>
<cc:Agent>
<dc:title>Thomas Knowles</dc:title>
</cc:Agent>
</dc:creator>
<cc:license
rdf:resource="http://creativecommons.org/licenses/by-sa/4.0/" />
</cc:Work>
<cc:License
rdf:about="http://creativecommons.org/licenses/by-sa/4.0/">
<cc:permits
rdf:resource="http://creativecommons.org/ns#Reproduction" />
<cc:permits
rdf:resource="http://creativecommons.org/ns#Distribution" />
<cc:requires
rdf:resource="http://creativecommons.org/ns#Notice" />
<cc:requires
rdf:resource="http://creativecommons.org/ns#Attribution" />
<cc:permits
rdf:resource="http://creativecommons.org/ns#DerivativeWorks" />
<cc:requires
rdf:resource="http://creativecommons.org/ns#ShareAlike" />
</cc:License>
</rdf:RDF>
</metadata>
<path
style="fill:#373737;fill-rule:evenodd"
d="M 17,6 14,3 H 5 v 10 c 3,-2 4.6,-2.6 8,-4 -3.8,1.5 -5,3.7 -8,6 l 1,2 c 5.3,-5 7,-7.7 11,-8 z m 0.6,4.5 C 13.5,12 10,15 8,18.4 L 9,19 c 2,-3 5,-6 8.7,-7.4 z m 0.3,4.5 c -2.8,0.7 -3.7,1.3 -4.7,4 l 0.5,0.4 c 1,-2.4 1.6,-3 4.2,-3.6 z" />
</svg>
