<?xml version="1.0" encoding="UTF-8" standalone="no"?>
<svg
viewBox="0 0 22 22"
version="1.1"
id="svg2"
height="22"
width="22"
xmlns="http://www.w3.org/2000/svg"
xmlns:xlink="http://www.w3.org/1999/xlink"
xmlns:svg="http://www.w3.org/2000/svg"
xmlns:rdf="http://www.w3.org/1999/02/22-rdf-syntax-ns#"
xmlns:cc="http://creativecommons.org/ns#"
xmlns:dc="http://purl.org/dc/elements/1.1/">
<defs
id="defs1" />
<metadata
id="metadata7">
<rdf:RDF>
<cc:Work>
<dc:format>image/svg+xml</dc:format>
<dc:type
rdf:resource="http://purl.org/dc/dcmitype/StillImage" />
<dc:date>2025</dc:date>
<dc:creator>
<cc:Agent>
<dc:title>Thomas Knowles</dc:title>
</cc:Agent>
</dc:creator>
<cc:license
rdf:resource="http://creativecommons.org/licenses/by-sa/4.0/" />
</cc:Work>
<cc:License
rdf:about="http://creativecommons.org/licenses/by-sa/4.0/">
<cc:permits
rdf:resource="http://creativecommons.org/ns#Reproduction" />
<cc:permits
rdf:resource="http://creativecommons.org/ns#Distribution" />
<cc:requires
rdf:resource="http://creativecommons.org/ns#Notice" />
<cc:requires
rdf:resource="http://creativecommons.org/ns#Attribution" />
<cc:permits
rdf:resource="http://creativecommons.org/ns#DerivativeWorks" />
<cc:requires
rdf:resource="http://creativecommons.org/ns#ShareAlike" />
</cc:License>
</rdf:RDF>
</metadata>
<g style="fill:#373737;fill-rule:evenodd">
<path
id="p"
d="m 3,3 h 7.5 V 6 H 6 v 4.5 H 3 Z" />
<path
id="t"
d="M 7,15 C 6.8,11.3 9.1,9.7 9.1,8.6 9.1,7.5 8,7.4 7.9,8.6 H 7 C 7.3,6 10,6.3 10,8.6 10,10.3 8.5,10.2 8.1,14 H 10 v 1 z" />
<path
d="M 10,11.7 10.7,11 10,10.3 10.3,10 11,10.7 11.7,10 12,10.3 11.3,11 12,11.7 11.7,12 11,11.3 10.3,12 Z" />
<use
xlink:href="#t"
transform="translate(5)" />
<use
xlink:href="#p"
transform="rotate(90,11,11)" />
<use
xlink:href="#p"
transform="rotate(180,11,11)" />
<use
xlink:href="#p"
transform="rotate(-90,11,11)" />
</g>
</svg>
