<?xml version="1.0" encoding="UTF-8" standalone="no"?>
<svg
viewBox="0 0 22 22"
version="1.1"
id="svg2"
height="22"
width="22"
xmlns="http://www.w3.org/2000/svg"
xmlns:svg="http://www.w3.org/2000/svg"
xmlns:rdf="http://www.w3.org/1999/02/22-rdf-syntax-ns#"
xmlns:cc="http://creativecommons.org/ns#"
xmlns:dc="http://purl.org/dc/elements/1.1/">
<defs
id="defs1" />
<metadata
id="metadata7">
<rdf:RDF>
<cc:Work>
<dc:format>image/svg+xml</dc:format>
<dc:type
rdf:resource="http://purl.org/dc/dcmitype/StillImage" />
<dc:date>2025</dc:date>
<dc:creator>
<cc:Agent>
<dc:title>Thomas Knowles</dc:title>
</cc:Agent>
</dc:creator>
<cc:license
rdf:resource="http://creativecommons.org/licenses/by-sa/4.0/" />
</cc:Work>
<cc:License
rdf:about="http://creativecommons.org/licenses/by-sa/4.0/">
<cc:permits
rdf:resource="http://creativecommons.org/ns#Reproduction" />
<cc:permits
rdf:resource="http://creativecommons.org/ns#Distribution" />
<cc:requires
rdf:resource="http://creativecommons.org/ns#Notice" />
<cc:requires
rdf:resource="http://creativecommons.org/ns#Attribution" />
<cc:permits
rdf:resource="http://creativecommons.org/ns#DerivativeWorks" />
<cc:requires
rdf:resource="http://creativecommons.org/ns#ShareAlike" />
</cc:License>
</rdf:RDF>
</metadata>
<path
style="fill:#373737;fill-rule:evenodd"
d="M 10,13 C 8.5,13 7.5,13.4 7,14 6.4,14.6 6,15.5 6,17 v 1 H 16 V 17 C 16,15.5 15.7,14.6 15,14 14.5,13.4 13.5,13 12,13 Z m -5,6 h 12 v -2 c 0,-3.3 -1.7,-5 -5,-5 H 10 C 6.7,12 5,13.7 5,17 Z M 15,7 a 4,4 0 0 1 -4,4 4,4 0 0 1 -4,-4 4,4 0 0 1 4,-4 4,4 0 0 1 4,4 z" />
</svg>
