<?xml version="1.0" encoding="UTF-8" standalone="no"?>
<svg
viewBox="0 0 22 22"
version="1.1"
id="svg2"
height="22"
width="22"
xmlns="http://www.w3.org/2000/svg"
xmlns:svg="http://www.w3.org/2000/svg"
xmlns:rdf="http://www.w3.org/1999/02/22-rdf-syntax-ns#"
xmlns:cc="http://creativecommons.org/ns#"
xmlns:dc="http://purl.org/dc/elements/1.1/">
<defs
id="defs1" />
<metadata
id="metadata7">
<rdf:RDF>
<cc:Work>
<dc:format>image/svg+xml</dc:format>
<dc:type
rdf:resource="http://purl.org/dc/dcmitype/StillImage" />
<dc:date>2025</dc:date>
<dc:creator>
<cc:Agent>
<dc:title>Thomas Knowles</dc:title>
</cc:Agent>
</dc:creator>
<cc:license
rdf:resource="http://creativecommons.org/licenses/by-sa/4.0/" />
</cc:Work>
<cc:License
rdf:about="http://creativecommons.org/licenses/by-sa/4.0/">
<cc:permits
rdf:resource="http://creativecommons.org/ns#Reproduction" />
<cc:permits
rdf:resource="http://creativecommons.org/ns#Distribution" />
<cc:requires
rdf:resource="http://creativecommons.org/ns#Notice" />
<cc:requires
rdf:resource="http://creativecommons.org/ns#Attribution" />
<cc:permits
rdf:resource="http://creativecommons.org/ns#DerivativeWorks" />
<cc:requires
rdf:resource="http://creativecommons.org/ns#ShareAlike" />
</cc:License>
</rdf:RDF>
</metadata>
<path
style="fill:#373737;fill-rule:evenodd"
d="m 3,11 0.9,-0.2 c 0.2,1.5 1.2,1.4 1.2,0 V 7.1 H 4 V 6 h 2.1 v 4.7 C 6.1,13.6 3.4,13.9 3,11 Z m 7.4,-2.8 c 0,1.9 -1.2,2.3 -2.8,2.3 v 2.4 H 6.7 V 6 c 2,-0.1 3.5,-0.1 3.7,2.2 z m -1,0 C 9.4,7 8.6,7 7.6,7 v 2.3 c 1.1,0.1 1.8,0 1.8,-1.1 z m 1.3,4.7 V 6 h 3.5 V 7.1 H 11.7 V 9 H 14 v 1 h -2.3 v 1.8 h 2.7 v 1.1 z M 18,11.3 v -1 h -1 v -1 h 2 v 2.5 c -1,1.6 -4.4,2.3 -4.4,-2.4 0,-4.5 3.8,-4.3 4.4,-1.7 l -1,0.4 c -0.4,-1.5 -2.4,-1.8 -2.4,1.3 0,3.2 1.9,2.6 2.4,1.9 z M 3,14 v 1 h 16 v -1 z m 16,1.5 H 3 V 19 h 16 z" />
</svg>
