<?xml version="1.0" encoding="UTF-8" standalone="no"?>
<svg
viewBox="0 0 22 22"
version="1.1"
id="svg2"
height="22"
width="22"
xmlns="http://www.w3.org/2000/svg"
xmlns:svg="http://www.w3.org/2000/svg"
xmlns:rdf="http://www.w3.org/1999/02/22-rdf-syntax-ns#"
xmlns:cc="http://creativecommons.org/ns#"
xmlns:dc="http://purl.org/dc/elements/1.1/">
<defs
id="defs1" />
<metadata
id="metadata7">
<rdf:RDF>
<cc:Work>
<dc:format>image/svg+xml</dc:format>
<dc:type
rdf:resource="http://purl.org/dc/dcmitype/StillImage" />
<dc:date>2025</dc:date>
<dc:creator>
<cc:Agent>
<dc:title>Thomas Knowles</dc:title>
</cc:Agent>
</dc:creator>
<cc:license
rdf:resource="http://creativecommons.org/licenses/by-sa/4.0/" />
</cc:Work>
<cc:License
rdf:about="http://creativecommons.org/licenses/by-sa/4.0/">
<cc:permits
rdf:resource="http://creativecommons.org/ns#Reproduction" />
<cc:permits
rdf:resource="http://creativecommons.org/ns#Distribution" />
<cc:requires
rdf:resource="http://creativecommons.org/ns#Notice" />
<cc:requires
rdf:resource="http://creativecommons.org/ns#Attribution" />
<cc:permits
rdf:resource="http://creativecommons.org/ns#DerivativeWorks" />
<cc:requires
rdf:resource="http://creativecommons.org/ns#ShareAlike" />
</cc:License>
</rdf:RDF>
</metadata>
<path
style="fill:#d2d2d2;fill-rule:evenodd"
d="M 5.7,10.2 4,7 7.7,6.8 8,8 7,10 Z m 2,5 L 4,15 5.7,11.8 7,12 8,14 Z M 13,16 11,19 9,16 10,15 h 2 z M 16.3,11.8 18,15 14.3,15.2 14,14 15,12 Z m -2,-5 L 18,7 16.3,10.2 15,10 14,8 Z M 9,6 11,3 13,6 12,7 h -2 z m 5,5 c 0,1.7 -1.3,3 -3,3 -1.7,0 -3,-1.3 -3,-3 0,-1.7 1.3,-3 3,-3 1.7,0 3,1.3 3,3 z" />
</svg>
