<?xml version="1.0" encoding="UTF-8" standalone="no"?>
<svg
viewBox="0 0 22 22"
version="1.1"
id="svg2"
height="22"
width="22"
xmlns="http://www.w3.org/2000/svg"
xmlns:svg="http://www.w3.org/2000/svg"
xmlns:rdf="http://www.w3.org/1999/02/22-rdf-syntax-ns#"
xmlns:cc="http://creativecommons.org/ns#"
xmlns:dc="http://purl.org/dc/elements/1.1/">
<defs
id="defs1" />
<metadata
id="metadata7">
<rdf:RDF>
<cc:Work>
<dc:format>image/svg+xml</dc:format>
<dc:type
rdf:resource="http://purl.org/dc/dcmitype/StillImage" />
<dc:date>2025</dc:date>
<dc:creator>
<cc:Agent>
<dc:title>Thomas Knowles</dc:title>
</cc:Agent>
</dc:creator>
<cc:license
rdf:resource="http://creativecommons.org/licenses/by-sa/4.0/" />
</cc:Work>
<cc:License
rdf:about="http://creativecommons.org/licenses/by-sa/4.0/">
<cc:permits
rdf:resource="http://creativecommons.org/ns#Reproduction" />
<cc:permits
rdf:resource="http://creativecommons.org/ns#Distribution" />
<cc:requires
rdf:resource="http://creativecommons.org/ns#Notice" />
<cc:requires
rdf:resource="http://creativecommons.org/ns#Attribution" />
<cc:permits
rdf:resource="http://creativecommons.org/ns#DerivativeWorks" />
<cc:requires
rdf:resource="http://creativecommons.org/ns#ShareAlike" />
</cc:License>
</rdf:RDF>
</metadata>
<path
style="fill:#d2d2d2;fill-rule:evenodd"
d="m 15.1,11 c 0,2.3 -1.8,4.1 -4.1,4.1 -2.3,0 -4.1,-1.8 -4.1,-4.1 0,-2.3 1.8,-4.1 4.1,-4.1 2.3,0 4.1,1.8 4.1,4.1 z m 1.1,2.2 c -1,2.2 2.2,1.7 0.4,3.5 -1.8,1.8 -1.2,-1.4 -3.5,-0.4 C 11,17.2 13.5,19 11,19 8.4,19 11,17.2 8.8,16.2 6.6,15.4 7,18.4 5.2,16.7 3.4,14.9 6.6,15.4 5.8,13.2 4.8,10.9 3,13.5 3,11 3,8.4 4.8,11 5.8,8.8 6.6,6.6 3.5,7 5.3,5.2 7.1,3.4 6.6,6.6 8.8,5.8 11.1,4.8 8.5,3 11,3 c 2.5,0 0,1.8 2.2,2.8 2.2,1 1.7,-2.2 3.5,-0.4 1.8,1.8 -1.4,1.2 -0.4,3.5 0.9,2.1 2.7,-0.4 2.7,2.1 0,2.5 -1.8,0 -2.8,2.2 z" />
</svg>
